<svg xmlns="http://www.w3.org/2000/svg" xmlns:xlink="http://www.w3.org/1999/xlink" version="1.1" x="0px" y="0px" viewBox="0 0 100 125" style="enable-background:new 0 0 100 100;" xml:space="preserve"><g><path d="M80.1210938,42.3540039c-0.8755493-0.8222046-2.1883545-0.3740234-3.4226074,0.4242554   c1.100708-5.7995605,2.1569824-15.8584595-2.7687988-23.6859741C67.9472656,9.5859375,61.0146484,5.7084961,50,5.7084961   S32.0527344,9.5859375,26.0703125,19.0922852c-4.9255981,7.8276367-3.8695068,17.8865356-2.7683716,23.6860352   c-1.2340698-0.7978516-2.546875-1.2454224-3.4230347-0.4243164c-1.1630859,1.090332-1.1982422,4.0332031-0.8759766,8.4272461   c0.3435669,4.6973267,1.9179688,8.1347656,4.7770996,10.5150757c-0.0015869,1.171875,0.057251,2.3823242,0.2307129,3.5581665   c0.9101562,6.168457,3.4882812,11.6435547,7.6630859,16.2734375c3.8134766,4.2285156,5.3730469,6.1494141,5.7617188,6.6396484   C37.8476562,88.949707,40.25,94.2915039,50,94.2915039s12.1523438-5.3417969,12.5644531-6.5239258   c0.3886719-0.4902344,1.9482422-2.4111328,5.7607422-6.6391602c4.1757812-4.6303711,6.7539062-10.1054688,7.6640625-16.2739258   c0.1653442-1.1199951,0.1999512-2.3202515,0.1710205-3.5067139c2.8980103-2.3818359,4.4907837-5.8359375,4.836792-10.5665283   C81.3193359,46.387207,81.2841797,43.4443359,80.1210938,42.3540039z M25.7929688,52.0229492l-0.0898438-0.3886719   c-0.1552734-0.6464844-0.5341797-1.215332-1.0751953-1.6162109L24.5625,48.5073242   c0.8447266-0.4306641,1.3203125-1.2509766,1.78125-2.0463867c0.4628906-0.7988281,0.9414062-1.625,1.8339844-2.3125   c0.3701172-0.2851562,1.6835938-0.980957,5.8974609-1.2924805c1.9990234-0.1474609,4.0517578-0.1083984,6.0947266,0.1162109   c3.0664062,0.3369141,7.2519531,0.7387695,9.8144531,0.7421875c0.0097656,0,0.0214844,0,0.03125,0   c2.5625-0.003418,6.7480469-0.4052734,9.8144531-0.7421875c2.0439453-0.2250977,4.0976562-0.2626953,6.0957031-0.1162109   c4.2128906,0.3115234,5.5263672,1.0073242,5.8964844,1.2924805c0.8925781,0.6875,1.3710938,1.5136719,1.8339844,2.3125   c0.4609375,0.7954102,0.9365234,1.6157227,1.78125,2.0463867l-0.0654297,1.5102539   c-0.5400391,0.4008789-0.9199219,0.9697266-1.0751953,1.6176758l-0.0898438,0.3876953   c-0.8652344,3.7700195-1.4150391,4.9619141-1.7226562,5.2973633c-1.6630859,1.8056641-4.2099609,2.7211914-7.5693359,2.7211914   c-4.8916016,0-7.0566406-1.9785156-7.9814453-2.8237305c-0.9658203-0.8818359-3.0576172-4.9433594-3.71875-6.6450195   C52.6298828,49.0683594,51.9833984,47.8232422,50,47.8232422s-2.6298828,1.2451172-3.2158203,2.7504883   c-0.6601562,1.7006836-2.7519531,5.762207-3.7177734,6.644043c-0.9248047,0.8452148-3.0898438,2.8237305-7.9814453,2.8237305   c-3.359375,0-5.90625-0.9155273-7.5683594-2.7207031C27.2080078,56.9848633,26.6582031,55.7929688,25.7929688,52.0229492z    M26.3485718,43.1104736C27.2263794,34.9329224,29.3928833,30.6739502,30.75,28.0170898   c0.3496094-0.6835938,0.6503906-1.2739258,0.8789062-1.8222656c0.09375-0.2216797,0.3232422-0.3330078,0.5507812-0.262207   C35.3505859,26.9174805,43.4355469,29.2084961,50,29.2084961s14.6494141-2.2910156,17.8193359-3.2758789   c0.2255859-0.0673828,0.4589844,0.0395508,0.5517578,0.2617188c0.2099609,0.5058594,0.4882812,1.0717773,0.8115234,1.7255859   c1.3239136,2.6824951,3.4361572,6.9777222,4.4187622,15.1456299c-0.177124-0.1691895-0.348999-0.3397827-0.5584106-0.5010986   c-1.1464844-0.8842773-3.4257812-1.440918-6.9697266-1.7026367c-2.125-0.1582031-4.2978516-0.1157227-6.4619141,0.1220703   C57.1367188,41.2563477,52.6015625,41.7124023,50,41.7143555c-2.6015625-0.0019531-7.1367188-0.4580078-9.6113281-0.7304688   c-2.1640625-0.237793-4.3398438-0.2792969-6.4609375-0.1220703c-3.5449219,0.2617188-5.8242188,0.8183594-6.9707031,1.7026367   C26.7288818,42.7402344,26.5386963,42.9255981,26.3485718,43.1104736z M27.7636719,20.1577148   C33.4013672,11.1987305,39.6357422,7.7084961,50,7.7084961s16.5986328,3.4902344,22.2363281,12.4492188   c3.9067383,6.2070312,3.7158813,14.0875854,2.9196777,19.6936035c-1.125-6.6057739-2.9682617-10.3615723-4.1804199-12.8166504   c-0.3007812-0.6098633-0.5615234-1.137207-0.7587891-1.609375c-0.4912109-1.1762695-1.7724609-1.777832-2.9902344-1.402832   C64.1425781,24.9804688,56.2910156,27.2084961,50,27.2084961s-14.1425781-2.2280273-17.2275391-3.1860352   c-1.2138672-0.3769531-2.4990234,0.2265625-2.9892578,1.4033203c-0.1992188,0.4770508-0.484375,1.0351562-0.8144531,1.6816406   c-1.2265625,2.4021606-3.0847168,6.0581665-4.1599731,12.4915771   C24.0432739,34.0107422,23.9160156,26.2711792,27.7636719,20.1577148z M20.9970703,50.6357422   c-0.3486328-4.765625-0.0742188-6.2587891,0.171875-6.7099609c0.5244141,0.1203613,1.7438354,0.9663086,2.789978,1.9348755   c0.0132446,0.057312,0.02948,0.1292725,0.0420532,0.1837769l0.03125,0.137207   c0.0102539,0.0445557,0.0386353,0.078064,0.0543213,0.1196899c-0.1571045,0.2139282-0.3123169,0.3754883-0.4742432,0.4437866   c-0.6640625,0.2783203-1.0888672,0.9462891-1.0566406,1.659668l0.0800781,1.8378906   c0.0253906,0.5488281,0.3115234,1.0551758,0.7617188,1.3544922c0.1894531,0.1254883,0.3105469,0.2954102,0.3603516,0.5029297   l0.0859375,0.3701172c0.1896362,0.8272705,0.3887329,1.642334,0.5987549,2.4106445l-0.0938721-0.0131836l-0.0751953,0.4946289   c-0.1315308,0.8181763-0.2830811,1.9568481-0.3851929,3.2493896   C22.2044067,56.6598511,21.2459717,54.0373535,20.9970703,50.6357422z M50,92.2915039   c-8.1531982,0-10.2316284-4.0363159-10.6208496-5.0324097c-0.0006714-0.0147705,0.0059814-0.0278931,0.0046387-0.0427856   c-0.2216797-2.4146118-0.2332153-4.5075684-0.1243286-6.291687c1.609314,2.6454468,4.7578735,5.7838745,10.6868286,5.7838745   h0.1904297c5.9048462,0,9.0349731-3.1123047,10.6358643-5.7518311c0.1064453,1.7681274,0.0944824,3.838562-0.1222534,6.2235718   C60.3512573,87.9959106,58.3768921,92.2915039,50,92.2915039z M39.7296753,77.112793   c0.3389282-1.7543335,0.7635498-2.9514771,1.0437622-3.6147461c0.1044922-0.2480469,0.265625-0.4487305,0.4677734-0.5800781   c4.5488281-2.9628906,8.7294922-2.909668,8.7988281-2.9155273c0.0419922-0.0014648,4.1640625-0.0708008,8.7480469,2.9155273   c0.2021484,0.1318359,0.3642578,0.3325195,0.4697266,0.581543c0.2799683,0.663269,0.7047119,1.8612061,1.0437012,3.6172485   c-0.2880859,1.1620483-2.2418213,7.5917358-10.1647949,7.5917358h-0.1904297   C42.0175781,84.7084961,40.0245361,78.2720947,39.7296753,77.112793z M74.0107422,64.5625   c-0.8515625,5.7714844-3.2636719,10.8945312-7.1708984,15.2265625c-1.8047485,2.0020142-3.1010742,3.4815674-4.0197144,4.5513916   c0.0795288-3.0287476-0.168457-5.4782715-0.5174561-7.3735352c-0.0031128-0.0177002-0.0050659-0.034668-0.0091553-0.052124   c-0.3797607-2.0414429-0.8735352-3.4352417-1.1939087-4.1931152c-0.2597656-0.6171875-0.6816406-1.128418-1.21875-1.4790039   c-5.09375-3.3183594-9.6855469-3.2441406-9.8408203-3.2392578c-0.1904297-0.0043945-4.7910156-0.0834961-9.890625,3.2387695   c-0.5371094,0.3500977-0.9589844,0.8613281-1.21875,1.4785156c-0.3208008,0.7590942-0.8154297,2.1560669-1.1953125,4.2020264   c-0.0032349,0.0145874-0.0050049,0.0286255-0.0076294,0.043396c-0.3503418,1.9033813-0.5993652,4.3648071-0.5164185,7.4111328   c-0.9204712-1.0725708-2.225769-2.5629883-4.052124-4.5886841c-3.90625-4.331543-6.3183594-9.4545898-7.1699219-15.2260742   c-0.3026123-2.0507202-0.24646-4.2509155-0.0874634-6.0789185c0.0479126,0.0625,0.0939331,0.1377563,0.1431274,0.1912231   c2.0566406,2.2338867,5.0986328,3.3666992,9.0400391,3.3666992c5.6679688,0,8.234375-2.3457031,9.3310547-3.347168   c1.4511719-1.3266602,3.7382812-6.1230469,4.2324219-7.3959961C49.2226562,49.8232422,49.4345703,49.8232422,50,49.8232422   s0.7773438,0,1.3505859,1.4741211c0.4951172,1.2739258,2.7822266,6.0703125,4.2333984,7.3969727   c1.0966797,1.0014648,3.6630859,3.347168,9.3310547,3.347168c3.9414062,0,6.9833984-1.1328125,9.0410156-3.3671875   c0.0076904-0.0083618,0.0147705-0.0213623,0.0224609-0.0299683C74.1782837,60.5327759,74.286377,62.6956177,74.0107422,64.5625z    M79.0029297,50.6357422c-0.2543945,3.4765015-1.2512207,6.1380615-3.0053101,8.1022339   c-0.1436768-1.4562988-0.340332-2.7510986-0.4888306-3.6787109c0.2283936-0.8186646,0.4431763-1.6976929,0.6474609-2.5890503   l0.0859375-0.3691406c0.0498047-0.2084961,0.1708984-0.378418,0.3583984-0.5029297   c0.4521484-0.300293,0.7382812-0.8066406,0.7636719-1.3588867l0.0800781-1.8325195   c0.0322266-0.715332-0.3925781-1.3833008-1.0566406-1.6616211c-0.15448-0.0651245-0.3027954-0.218811-0.4525146-0.4179077   L76,46.0439453c0.0126343-0.0546265,0.0288696-0.1268311,0.0421143-0.1842651   c1.0456543-0.9676514,2.2628174-1.8126831,2.7879639-1.9338989C79.078125,44.3823242,79.3505859,45.8789062,79.0029297,50.6357422z   "/><path d="M53.1816406,64.4711914l-0.2216797,0.0917969C52.0068359,64.9584961,51.2548828,65.2709961,50,65.2709961h-0.375   c-1.2548828,0-2.0068359-0.3125-2.9599609-0.7080078l-0.2216797-0.0917969   c-1.5537109-0.640625-3.2734375,0.7597656-3.6015625,1.0473633c-0.4160156,0.3637695-0.4580078,0.9951172-0.0947266,1.4111328   c0.3642578,0.4150391,0.9960938,0.4560547,1.4111328,0.09375c0.4658203-0.4067383,1.265625-0.8066406,1.5234375-0.7026367   l0.2167969,0.0893555c1.0195312,0.4233398,2.0732422,0.8608398,3.7265625,0.8608398H50   c1.6533203,0,2.7070312-0.4375,3.7265625-0.8608398l0.2167969-0.0893555   c0.2431641-0.0981445,0.9980469,0.2490234,1.5253906,0.7045898c0.1894531,0.1650391,0.4228516,0.2456055,0.65625,0.2456055   c0.2783203,0,0.5546875-0.1157227,0.7529297-0.3413086c0.3632812-0.4160156,0.3212891-1.0473633-0.0947266-1.4111328   C56.4560547,65.230957,54.7353516,63.8305664,53.1816406,64.4711914z"/><path d="M52.6328125,78.2963867C51.1386719,79.4672852,49.8251953,79.5,49.8125,79.5s-1.3261719-0.0327148-2.8203125-1.2036133   c-0.4365234-0.3413086-1.0634766-0.2646484-1.4042969,0.1704102c-0.3408203,0.4345703-0.2646484,1.0634766,0.1699219,1.4038086   C47.7792969,81.4541016,49.6103516,81.5,49.8125,81.5s2.0332031-0.0458984,4.0546875-1.6293945   c0.4345703-0.340332,0.5107422-0.9692383,0.1699219-1.4038086C53.6962891,78.0317383,53.0683594,77.9550781,52.6328125,78.2963867z   "/><path d="M49.1533203,76.7797852c0.1577759,0.2530518,0.4116211,0.4012451,0.6845703,0.4468384   c0.0344849,0.0062256,0.0679932,0.0009766,0.1027222,0.00354c0.0878906,0.0055542,0.1738892,0.0097046,0.2615356-0.0084229   c0.078125-0.0149536,0.1483154-0.0500488,0.2210083-0.0830078c0.0354614-0.0167236,0.0740356-0.0192871,0.1080933-0.0405884   c0.0056763-0.00354,0.0084229-0.0096436,0.0140381-0.0133057c0.1027832-0.0643921,0.1906128-0.1503906,0.2664795-0.2522583   c0.0023193-0.0031738,0.0059204-0.0054321,0.0082397-0.008667c0.0123291-0.0169678,0.0309448-0.0262451,0.0422974-0.0441284   c0.0400391-0.0625,0.2578125-0.300293,0.7880859-0.6728516c3.6855469,0.3007812,6.1875,1.0874023,6.2119141,1.0957031   C57.9638672,77.2348633,58.0654297,77.25,58.1669922,77.25c0.4228516,0,0.8164062-0.2709961,0.9521484-0.6958008   c0.1679688-0.5258789-0.1210938-1.0878906-0.6474609-1.2563477c-0.1113281-0.0361328-2.7822266-0.8803711-6.7773438-1.1933594   c-0.3808594-0.0332031-0.7626953,0.0698242-1.0761719,0.284668c-0.2301636,0.1574707-0.4277954,0.3085938-0.6102295,0.456604   c-0.1824951-0.1481934-0.380188-0.2994385-0.6104736-0.4570923c-0.3144531-0.2138672-0.6962891-0.3149414-1.0742188-0.284668   c-3.9970703,0.3134766-6.6679688,1.1577148-6.7792969,1.1938477c-0.5263672,0.168457-0.8164062,0.7314453-0.6474609,1.2573242   c0.1357422,0.4243164,0.5283203,0.6953125,0.9521484,0.6953125c0.1005859,0,0.2041016-0.015625,0.3046875-0.0483398   c0.0253906-0.0078125,2.5068359-0.7924805,6.2119141-1.0952148C48.8955078,76.4794922,49.1132812,76.7172852,49.1533203,76.7797852   z"/><path d="M38.0253906,68.0400391c-0.1005859,0.0942383-2.4755859,2.3447266-2.8916016,5.5390625   c-0.0722656,0.5478516,0.3144531,1.0498047,0.8623047,1.1210938c0.0439453,0.0058594,0.0869141,0.0083008,0.1298828,0.0083008   c0.4951172,0,0.9248047-0.3666992,0.9902344-0.8706055C37.4375,71.3754883,39.3642578,69.5263672,39.3925781,69.5   c0.4013672-0.3769531,0.4228516-1.0087891,0.0458984-1.4116211C39.0625,67.6845703,38.4277344,67.6645508,38.0253906,68.0400391z"/><path d="M61.8076172,68.0400391c-0.4023438-0.375-1.0341797-0.3540039-1.4101562,0.0473633   C60.0195312,68.4892578,60.0400391,69.121582,60.4404297,69.5c0.0195312,0.0185547,1.9541016,1.8701172,2.2763672,4.3378906   c0.0654297,0.5039062,0.4951172,0.8706055,0.9902344,0.8706055c0.0429688,0,0.0869141-0.0024414,0.1298828-0.0083008   c0.5478516-0.0712891,0.9345703-0.5732422,0.8623047-1.1210938C64.2832031,70.3847656,61.9082031,68.1342773,61.8076172,68.0400391   z"/><path d="M29.2607422,47.0742188H46.375c0.5527344,0,1-0.4477539,1-1s-0.4472656-1-1-1H29.2607422c-0.5527344,0-1,0.4477539-1,1   S28.7080078,47.0742188,29.2607422,47.0742188z"/><path d="M44.2607422,50.7265625c0.5527344,0,1-0.4477539,1-1s-0.4472656-1-1-1H27.59375c-0.5527344,0-1,0.4477539-1,1   s0.4472656,1,1,1H44.2607422z"/><path d="M42.3330078,52.378418H28.6777344c-0.5527344,0-1,0.4477539-1,1s0.4472656,1,1,1h13.6552734c0.5527344,0,1-0.4477539,1-1   S42.8857422,52.378418,42.3330078,52.378418z"/><path d="M38.7080078,56.0307617H30.25c-0.5527344,0-1,0.4477539-1,1s0.4472656,1,1,1h8.4580078c0.5527344,0,1-0.4477539,1-1   S39.2607422,56.0307617,38.7080078,56.0307617z"/><path d="M53.25,47.0742188h17.34375c0.5527344,0,1-0.4477539,1-1s-0.4472656-1-1-1H53.25c-0.5527344,0-1,0.4477539-1,1   S52.6972656,47.0742188,53.25,47.0742188z"/><path d="M54.59375,49.7265625c0,0.5522461,0.4472656,1,1,1h16.6669922c0.5527344,0,1-0.4477539,1-1s-0.4472656-1-1-1H55.59375   C55.0410156,48.7265625,54.59375,49.1743164,54.59375,49.7265625z"/><path d="M71.1777344,52.378418h-13.65625c-0.5527344,0-1,0.4477539-1,1s0.4472656,1,1,1h13.65625c0.5527344,0,1-0.4477539,1-1   S71.7304688,52.378418,71.1777344,52.378418z"/><path d="M69.6044922,56.0307617h-8.4580078c-0.5527344,0-1,0.4477539-1,1s0.4472656,1,1,1h8.4580078c0.5527344,0,1-0.4477539,1-1   S70.1572266,56.0307617,69.6044922,56.0307617z"/><path d="M33.6201172,18.8540039c0.2880859,0,0.5742188-0.1235352,0.7714844-0.362793   c0.1816406-0.2192383,0.3662109-0.4311523,0.5527344-0.6367188c0.3720703-0.4082031,0.3417969-1.0410156-0.0664062-1.4125977   c-0.4072266-0.3706055-1.0400391-0.3408203-1.4121094,0.0668945c-0.2080078,0.2280273-0.4140625,0.4643555-0.6152344,0.7080078   c-0.3525391,0.425293-0.2919922,1.0556641,0.1328125,1.4077148C33.1699219,18.7788086,33.3964844,18.8540039,33.6201172,18.8540039   z"/><path d="M36.5527344,16.0146484c0.2138672,0,0.4306641-0.0688477,0.6132812-0.2109375   c4.3935547-3.418457,9.2607422-3.949707,9.3085938-3.9545898c0.5488281-0.0561523,0.9501953-0.5458984,0.8945312-1.0952148   c-0.0546875-0.5483398-0.5458984-0.949707-1.0927734-0.8950195c-0.2207031,0.0219727-5.4716797,0.5791016-10.3388672,4.3666992   c-0.4355469,0.3388672-0.5136719,0.9672852-0.1748047,1.4033203   C35.9599609,15.8823242,36.2548828,16.0146484,36.5527344,16.0146484z"/></g><text x="0" y="115" fill="#000000" font-size="5px" font-weight="bold" font-family="'Helvetica Neue', Helvetica, Arial-Unicode, Arial, Sans-serif">Created by ST</text><text x="0" y="120" fill="#000000" font-size="5px" font-weight="bold" font-family="'Helvetica Neue', Helvetica, Arial-Unicode, Arial, Sans-serif">from the Noun Project</text></svg>